<svg width="1440" height="1099" viewBox="0 0 1440 1099" fill="none" xmlns="http://www.w3.org/2000/svg">
<circle cx="-1" cy="674" r="141" stroke="#001D38" stroke-opacity="0.1" stroke-width="2"/>
<line y1="534" x2="-1.23266e-05" y2="816" stroke="#001D38" stroke-opacity="0.1" stroke-width="2"/>
<line x1="-141" y1="679" x2="140" y2="679" stroke="#001D38" stroke-opacity="0.1" stroke-width="2"/>
<circle cx="-1" cy="391" r="141" stroke="#001D38" stroke-opacity="0.1" stroke-width="2"/>
<line y1="251" x2="-1.23266e-05" y2="533" stroke="#001D38" stroke-opacity="0.1" stroke-width="2"/>
<line x1="-141" y1="396" x2="140" y2="396" stroke="#001D38" stroke-opacity="0.1" stroke-width="2"/>
<circle cx="-1" cy="108" r="141" stroke="#001D38" stroke-opacity="0.1" stroke-width="2"/>
<line y1="-32" x2="-1.23266e-05" y2="250" stroke="#001D38" stroke-opacity="0.1" stroke-width="2"/>
<line x1="-141" y1="113" x2="140" y2="113" stroke="#001D38" stroke-opacity="0.1" stroke-width="2"/>
<circle cx="282" cy="391" r="141" stroke="#001D38" stroke-opacity="0.1" stroke-width="2"/>
<line x1="283" y1="251" x2="283" y2="533" stroke="#001D38" stroke-opacity="0.1" stroke-width="2"/>
<line x1="142" y1="396" x2="423" y2="396" stroke="#001D38" stroke-opacity="0.1" stroke-width="2"/>
<circle cx="282" cy="108" r="141" stroke="#001D38" stroke-opacity="0.1" stroke-width="2"/>
<line x1="283" y1="-32" x2="283" y2="250" stroke="#001D38" stroke-opacity="0.1" stroke-width="2"/>
<line x1="142" y1="113" x2="423" y2="113" stroke="#001D38" stroke-opacity="0.1" stroke-width="2"/>
<circle cx="565" cy="108" r="141" stroke="#001D38" stroke-opacity="0.1" stroke-width="2"/>
<line x1="566" y1="-32" x2="566" y2="250" stroke="#001D38" stroke-opacity="0.1" stroke-width="2"/>
<line x1="425" y1="113" x2="706" y2="113" stroke="#001D38" stroke-opacity="0.1" stroke-width="2"/>
<circle cx="565" cy="391" r="141" stroke="#001D38" stroke-opacity="0.1" stroke-width="2"/>
<line x1="566" y1="251" x2="566" y2="533" stroke="#001D38" stroke-opacity="0.1" stroke-width="2"/>
<line x1="425" y1="396" x2="706" y2="396" stroke="#001D38" stroke-opacity="0.1" stroke-width="2"/>
<circle cx="848" cy="108" r="141" stroke="#001D38" stroke-opacity="0.1" stroke-width="2"/>
<line x1="849" y1="-32" x2="849" y2="250" stroke="#001D38" stroke-opacity="0.1" stroke-width="2"/>
<line x1="708" y1="113" x2="989" y2="113" stroke="#001D38" stroke-opacity="0.1" stroke-width="2"/>
<circle cx="848" cy="391" r="141" stroke="#001D38" stroke-opacity="0.1" stroke-width="2"/>
<line x1="849" y1="251" x2="849" y2="533" stroke="#001D38" stroke-opacity="0.1" stroke-width="2"/>
<line x1="708" y1="396" x2="989" y2="396" stroke="#001D38" stroke-opacity="0.1" stroke-width="2"/>
<circle cx="1131" cy="391" r="141" stroke="#001D38" stroke-opacity="0.1" stroke-width="2"/>
<line x1="1132" y1="251" x2="1132" y2="533" stroke="#001D38" stroke-opacity="0.1" stroke-width="2"/>
<line x1="991" y1="396" x2="1272" y2="396" stroke="#001D38" stroke-opacity="0.1" stroke-width="2"/>
<circle cx="1131" cy="673" r="141" stroke="#001D38" stroke-opacity="0.1" stroke-width="2"/>
<line x1="1132" y1="533" x2="1132" y2="815" stroke="#001D38" stroke-opacity="0.1" stroke-width="2"/>
<line x1="991" y1="678" x2="1272" y2="678" stroke="#001D38" stroke-opacity="0.1" stroke-width="2"/>
<circle cx="1131" cy="957" r="141" stroke="#001D38" stroke-opacity="0.1" stroke-width="2"/>
<line x1="1132" y1="817" x2="1132" y2="1099" stroke="#001D38" stroke-opacity="0.1" stroke-width="2"/>
<line x1="991" y1="962" x2="1272" y2="962" stroke="#001D38" stroke-opacity="0.1" stroke-width="2"/>
<circle cx="1414" cy="391" r="141" stroke="#001D38" stroke-opacity="0.1" stroke-width="2"/>
<line x1="1415" y1="251" x2="1415" y2="533" stroke="#001D38" stroke-opacity="0.1" stroke-width="2"/>
<line x1="1274" y1="396" x2="1555" y2="396" stroke="#001D38" stroke-opacity="0.1" stroke-width="2"/>
<circle cx="1414" cy="673" r="141" stroke="#001D38" stroke-opacity="0.1" stroke-width="2"/>
<line x1="1415" y1="533" x2="1415" y2="815" stroke="#001D38" stroke-opacity="0.1" stroke-width="2"/>
<line x1="1274" y1="678" x2="1555" y2="678" stroke="#001D38" stroke-opacity="0.1" stroke-width="2"/>
<circle cx="1414" cy="957" r="141" stroke="#001D38" stroke-opacity="0.1" stroke-width="2"/>
<line x1="1415" y1="817" x2="1415" y2="1099" stroke="#001D38" stroke-opacity="0.1" stroke-width="2"/>
<line x1="1274" y1="962" x2="1555" y2="962" stroke="#001D38" stroke-opacity="0.1" stroke-width="2"/>
<circle cx="848" cy="673" r="141" stroke="#001D38" stroke-opacity="0.1" stroke-width="2"/>
<line x1="849" y1="533" x2="849" y2="815" stroke="#001D38" stroke-opacity="0.1" stroke-width="2"/>
<line x1="708" y1="678" x2="989" y2="678" stroke="#001D38" stroke-opacity="0.1" stroke-width="2"/>
<circle cx="848" cy="957" r="141" stroke="#001D38" stroke-opacity="0.1" stroke-width="2"/>
<line x1="849" y1="817" x2="849" y2="1099" stroke="#001D38" stroke-opacity="0.1" stroke-width="2"/>
<line x1="708" y1="962" x2="989" y2="962" stroke="#001D38" stroke-opacity="0.1" stroke-width="2"/>
<circle cx="1131" cy="108" r="141" stroke="#001D38" stroke-opacity="0.1" stroke-width="2"/>
<line x1="1132" y1="-32" x2="1132" y2="250" stroke="#001D38" stroke-opacity="0.1" stroke-width="2"/>
<line x1="991" y1="113" x2="1272" y2="113" stroke="#001D38" stroke-opacity="0.1" stroke-width="2"/>
<circle cx="1414" cy="108" r="141" stroke="#001D38" stroke-opacity="0.1" stroke-width="2"/>
<line x1="1415" y1="-32" x2="1415" y2="250" stroke="#001D38" stroke-opacity="0.1" stroke-width="2"/>
<line x1="1274" y1="113" x2="1555" y2="113" stroke="#001D38" stroke-opacity="0.1" stroke-width="2"/>
<circle cx="282" cy="674" r="141" stroke="#001D38" stroke-opacity="0.1" stroke-width="2"/>
<line x1="283" y1="534" x2="283" y2="816" stroke="#001D38" stroke-opacity="0.1" stroke-width="2"/>
<line x1="142" y1="679" x2="423" y2="679" stroke="#001D38" stroke-opacity="0.1" stroke-width="2"/>
<circle cx="282" cy="957" r="141" stroke="#001D38" stroke-opacity="0.1" stroke-width="2"/>
<line x1="283" y1="817" x2="283" y2="1099" stroke="#001D38" stroke-opacity="0.1" stroke-width="2"/>
<line x1="142" y1="962" x2="423" y2="962" stroke="#001D38" stroke-opacity="0.1" stroke-width="2"/>
<circle cx="566" cy="957" r="141" stroke="#001D38" stroke-opacity="0.1" stroke-width="2"/>
<line x1="567" y1="817" x2="567" y2="1099" stroke="#001D38" stroke-opacity="0.1" stroke-width="2"/>
<line x1="426" y1="962" x2="707" y2="962" stroke="#001D38" stroke-opacity="0.1" stroke-width="2"/>
<circle cx="-1" cy="957" r="141" stroke="#001D38" stroke-opacity="0.1" stroke-width="2"/>
<line y1="817" x2="-1.23266e-05" y2="1099" stroke="#001D38" stroke-opacity="0.1" stroke-width="2"/>
<line x1="-141" y1="962" x2="140" y2="962" stroke="#001D38" stroke-opacity="0.1" stroke-width="2"/>
<circle cx="566" cy="674" r="141" stroke="#001D38" stroke-opacity="0.1" stroke-width="2"/>
<line x1="567" y1="534" x2="567" y2="816" stroke="#001D38" stroke-opacity="0.1" stroke-width="2"/>
<line x1="426" y1="679" x2="707" y2="679" stroke="#001D38" stroke-opacity="0.1" stroke-width="2"/>
</svg>
