<svg width="156" height="38" viewBox="0 0 156 38" fill="none" xmlns="http://www.w3.org/2000/svg">
<path d="M51.008 8.988H52.73V12.894C52.226 13.2953 51.638 13.6033 50.966 13.818C50.294 14.0327 49.6033 14.14 48.894 14.14C47.8953 14.14 46.9947 13.9253 46.192 13.496C45.3893 13.0573 44.7593 12.4553 44.302 11.69C43.8447 10.9247 43.616 10.0613 43.616 9.1C43.616 8.13867 43.8447 7.27533 44.302 6.51C44.7593 5.74467 45.3893 5.14733 46.192 4.718C47.004 4.27933 47.914 4.06 48.922 4.06C49.7433 4.06 50.49 4.19533 51.162 4.466C51.834 4.73667 52.3987 5.13333 52.856 5.656L51.708 6.776C50.9613 6.02933 50.0607 5.656 49.006 5.656C48.3153 5.656 47.6993 5.80067 47.158 6.09C46.626 6.37933 46.206 6.78533 45.898 7.308C45.5993 7.83067 45.45 8.428 45.45 9.1C45.45 9.75333 45.5993 10.3413 45.898 10.864C46.206 11.3867 46.626 11.7973 47.158 12.096C47.6993 12.3947 48.3107 12.544 48.992 12.544C49.7573 12.544 50.4293 12.376 51.008 12.04V8.988ZM61.9905 10.304C61.9905 10.4253 61.9811 10.598 61.9625 10.822H56.0965C56.1991 11.3727 56.4651 11.8113 56.8945 12.138C57.3331 12.4553 57.8745 12.614 58.5185 12.614C59.3398 12.614 60.0165 12.3433 60.5485 11.802L61.4865 12.88C61.1505 13.2813 60.7258 13.5847 60.2125 13.79C59.6991 13.9953 59.1205 14.098 58.4765 14.098C57.6551 14.098 56.9318 13.9347 56.3065 13.608C55.6811 13.2813 55.1958 12.8287 54.8505 12.25C54.5145 11.662 54.3465 10.9993 54.3465 10.262C54.3465 9.534 54.5098 8.88067 54.8365 8.302C55.1725 7.714 55.6345 7.25667 56.2225 6.93C56.8105 6.60333 57.4731 6.44 58.2105 6.44C58.9385 6.44 59.5871 6.60333 60.1565 6.93C60.7351 7.24733 61.1831 7.7 61.5005 8.288C61.8271 8.86667 61.9905 9.53867 61.9905 10.304ZM58.2105 7.84C57.6505 7.84 57.1745 8.008 56.7825 8.344C56.3998 8.67067 56.1665 9.10933 56.0825 9.66H60.3245C60.2498 9.11867 60.0211 8.68 59.6385 8.344C59.2558 8.008 58.7798 7.84 58.2105 7.84ZM68.1654 13.594C67.9601 13.762 67.7081 13.888 67.4094 13.972C67.1201 14.056 66.8121 14.098 66.4854 14.098C65.6641 14.098 65.0294 13.8833 64.5814 13.454C64.1334 13.0247 63.9094 12.3993 63.9094 11.578V7.98H62.6774V6.58H63.9094V4.872H65.6594V6.58H67.6614V7.98H65.6594V11.536C65.6594 11.9 65.7481 12.18 65.9254 12.376C66.1028 12.5627 66.3594 12.656 66.6954 12.656C67.0874 12.656 67.4141 12.5533 67.6754 12.348L68.1654 13.594ZM73.4742 6.524H75.2242V14H73.4742V6.524ZM74.3562 5.292C74.0388 5.292 73.7728 5.194 73.5582 4.998C73.3435 4.79267 73.2362 4.54067 73.2362 4.242C73.2362 3.94333 73.3435 3.696 73.5582 3.5C73.7728 3.29467 74.0388 3.192 74.3562 3.192C74.6735 3.192 74.9395 3.29 75.1542 3.486C75.3688 3.67267 75.4762 3.91067 75.4762 4.2C75.4762 4.508 75.3688 4.76933 75.1542 4.984C74.9488 5.18933 74.6828 5.292 74.3562 5.292ZM82.015 13.594C81.8097 13.762 81.5577 13.888 81.259 13.972C80.9697 14.056 80.6617 14.098 80.335 14.098C79.5137 14.098 78.879 13.8833 78.431 13.454C77.983 13.0247 77.759 12.3993 77.759 11.578V7.98H76.527V6.58H77.759V4.872H79.509V6.58H81.511V7.98H79.509V11.536C79.509 11.9 79.5977 12.18 79.775 12.376C79.9524 12.5627 80.209 12.656 80.545 12.656C80.937 12.656 81.2637 12.5533 81.525 12.348L82.015 13.594ZM90.6838 14.098C89.9278 14.098 89.2464 13.9347 88.6398 13.608C88.0331 13.2813 87.5571 12.8287 87.2118 12.25C86.8758 11.662 86.7078 10.9993 86.7078 10.262C86.7078 9.52467 86.8758 8.86667 87.2118 8.288C87.5571 7.70933 88.0331 7.25667 88.6398 6.93C89.2464 6.60333 89.9278 6.44 90.6838 6.44C91.4491 6.44 92.1351 6.60333 92.7418 6.93C93.3484 7.25667 93.8198 7.70933 94.1558 8.288C94.5011 8.86667 94.6738 9.52467 94.6738 10.262C94.6738 10.9993 94.5011 11.662 94.1558 12.25C93.8198 12.8287 93.3484 13.2813 92.7418 13.608C92.1351 13.9347 91.4491 14.098 90.6838 14.098ZM90.6838 12.6C91.3278 12.6 91.8598 12.3853 92.2798 11.956C92.6998 11.5267 92.9098 10.962 92.9098 10.262C92.9098 9.562 92.6998 8.99733 92.2798 8.568C91.8598 8.13867 91.3278 7.924 90.6838 7.924C90.0398 7.924 89.5078 8.13867 89.0878 8.568C88.6771 8.99733 88.4718 9.562 88.4718 10.262C88.4718 10.962 88.6771 11.5267 89.0878 11.956C89.5078 12.3853 90.0398 12.6 90.6838 12.6ZM100.589 6.44C101.532 6.44 102.288 6.71533 102.857 7.266C103.427 7.81667 103.711 8.63333 103.711 9.716V14H101.961V9.94C101.961 9.28667 101.807 8.79667 101.499 8.47C101.191 8.134 100.753 7.966 100.183 7.966C99.5392 7.966 99.0306 8.162 98.6572 8.554C98.2839 8.93667 98.0972 9.492 98.0972 10.22V14H96.3472V6.524H98.0132V7.49C98.3026 7.14467 98.6666 6.88333 99.1052 6.706C99.5439 6.52867 100.039 6.44 100.589 6.44Z" fill="#001D38"/>
<path d="M53.008 26.502H55.672V31.614C54.988 32.13 54.196 32.526 53.296 32.802C52.396 33.078 51.49 33.216 50.578 33.216C49.27 33.216 48.094 32.94 47.05 32.388C46.006 31.824 45.184 31.05 44.584 30.066C43.996 29.07 43.702 27.948 43.702 26.7C43.702 25.452 43.996 24.336 44.584 23.352C45.184 22.356 46.012 21.582 47.068 21.03C48.124 20.466 49.312 20.184 50.632 20.184C51.736 20.184 52.738 20.37 53.638 20.742C54.538 21.114 55.294 21.654 55.906 22.362L54.034 24.09C53.134 23.142 52.048 22.668 50.776 22.668C49.972 22.668 49.258 22.836 48.634 23.172C48.01 23.508 47.524 23.982 47.176 24.594C46.828 25.206 46.654 25.908 46.654 26.7C46.654 27.48 46.828 28.176 47.176 28.788C47.524 29.4 48.004 29.88 48.616 30.228C49.24 30.564 49.948 30.732 50.74 30.732C51.58 30.732 52.336 30.552 53.008 30.192V26.502ZM62.7907 33.144C61.7707 33.144 60.8527 32.934 60.0367 32.514C59.2327 32.082 58.6027 31.488 58.1467 30.732C57.6907 29.976 57.4627 29.118 57.4627 28.158C57.4627 27.198 57.6907 26.34 58.1467 25.584C58.6027 24.828 59.2327 24.24 60.0367 23.82C60.8527 23.388 61.7707 23.172 62.7907 23.172C63.8107 23.172 64.7227 23.388 65.5267 23.82C66.3307 24.24 66.9607 24.828 67.4167 25.584C67.8727 26.34 68.1007 27.198 68.1007 28.158C68.1007 29.118 67.8727 29.976 67.4167 30.732C66.9607 31.488 66.3307 32.082 65.5267 32.514C64.7227 32.934 63.8107 33.144 62.7907 33.144ZM62.7907 30.84C63.5107 30.84 64.0987 30.6 64.5547 30.12C65.0227 29.628 65.2567 28.974 65.2567 28.158C65.2567 27.342 65.0227 26.694 64.5547 26.214C64.0987 25.722 63.5107 25.476 62.7907 25.476C62.0707 25.476 61.4767 25.722 61.0087 26.214C60.5407 26.694 60.3067 27.342 60.3067 28.158C60.3067 28.974 60.5407 29.628 61.0087 30.12C61.4767 30.6 62.0707 30.84 62.7907 30.84ZM74.5856 33.144C73.5656 33.144 72.6476 32.934 71.8316 32.514C71.0276 32.082 70.3976 31.488 69.9416 30.732C69.4856 29.976 69.2576 29.118 69.2576 28.158C69.2576 27.198 69.4856 26.34 69.9416 25.584C70.3976 24.828 71.0276 24.24 71.8316 23.82C72.6476 23.388 73.5656 23.172 74.5856 23.172C75.6056 23.172 76.5176 23.388 77.3216 23.82C78.1256 24.24 78.7556 24.828 79.2116 25.584C79.6676 26.34 79.8956 27.198 79.8956 28.158C79.8956 29.118 79.6676 29.976 79.2116 30.732C78.7556 31.488 78.1256 32.082 77.3216 32.514C76.5176 32.934 75.6056 33.144 74.5856 33.144ZM74.5856 30.84C75.3056 30.84 75.8936 30.6 76.3496 30.12C76.8176 29.628 77.0516 28.974 77.0516 28.158C77.0516 27.342 76.8176 26.694 76.3496 26.214C75.8936 25.722 75.3056 25.476 74.5856 25.476C73.8656 25.476 73.2716 25.722 72.8036 26.214C72.3356 26.694 72.1016 27.342 72.1016 28.158C72.1016 28.974 72.3356 29.628 72.8036 30.12C73.2716 30.6 73.8656 30.84 74.5856 30.84ZM91.7626 23.316V31.38C91.7626 33.156 91.3006 34.476 90.3766 35.34C89.4526 36.204 88.1026 36.636 86.3266 36.636C85.3906 36.636 84.5026 36.522 83.6626 36.294C82.8226 36.066 82.1266 35.736 81.5746 35.304L82.6906 33.288C83.0986 33.624 83.6146 33.888 84.2386 34.08C84.8626 34.284 85.4866 34.386 86.1106 34.386C87.0826 34.386 87.7966 34.164 88.2526 33.72C88.7206 33.288 88.9546 32.628 88.9546 31.74V31.326C88.2226 32.13 87.2026 32.532 85.8946 32.532C85.0066 32.532 84.1906 32.34 83.4466 31.956C82.7146 31.56 82.1326 31.008 81.7006 30.3C81.2686 29.592 81.0526 28.776 81.0526 27.852C81.0526 26.928 81.2686 26.112 81.7006 25.404C82.1326 24.696 82.7146 24.15 83.4466 23.766C84.1906 23.37 85.0066 23.172 85.8946 23.172C87.2986 23.172 88.3666 23.634 89.0986 24.558V23.316H91.7626ZM86.4526 30.228C87.1966 30.228 87.8026 30.012 88.2706 29.58C88.7506 29.136 88.9906 28.56 88.9906 27.852C88.9906 27.144 88.7506 26.574 88.2706 26.142C87.8026 25.698 87.1966 25.476 86.4526 25.476C85.7086 25.476 85.0966 25.698 84.6166 26.142C84.1366 26.574 83.8966 27.144 83.8966 27.852C83.8966 28.56 84.1366 29.136 84.6166 29.58C85.0966 30.012 85.7086 30.228 86.4526 30.228ZM94.3761 19.644H97.1841V33H94.3761V19.644ZM109.276 28.194C109.276 28.23 109.258 28.482 109.222 28.95H101.896C102.028 29.55 102.34 30.024 102.832 30.372C103.324 30.72 103.936 30.894 104.668 30.894C105.172 30.894 105.616 30.822 106 30.678C106.396 30.522 106.762 30.282 107.098 29.958L108.592 31.578C107.68 32.622 106.348 33.144 104.596 33.144C103.504 33.144 102.538 32.934 101.698 32.514C100.858 32.082 100.21 31.488 99.7541 30.732C99.2981 29.976 99.0701 29.118 99.0701 28.158C99.0701 27.21 99.2921 26.358 99.7361 25.602C100.192 24.834 100.81 24.24 101.59 23.82C102.382 23.388 103.264 23.172 104.236 23.172C105.184 23.172 106.042 23.376 106.81 23.784C107.578 24.192 108.178 24.78 108.61 25.548C109.054 26.304 109.276 27.186 109.276 28.194ZM104.254 25.296C103.618 25.296 103.084 25.476 102.652 25.836C102.22 26.196 101.956 26.688 101.86 27.312H106.63C106.534 26.7 106.27 26.214 105.838 25.854C105.406 25.482 104.878 25.296 104.254 25.296ZM121.895 20.4C123.011 20.4 123.977 20.586 124.793 20.958C125.621 21.33 126.257 21.858 126.701 22.542C127.145 23.226 127.367 24.036 127.367 24.972C127.367 25.896 127.145 26.706 126.701 27.402C126.257 28.086 125.621 28.614 124.793 28.986C123.977 29.346 123.011 29.526 121.895 29.526H119.357V33H116.441V20.4H121.895ZM121.733 27.15C122.609 27.15 123.275 26.964 123.731 26.592C124.187 26.208 124.415 25.668 124.415 24.972C124.415 24.264 124.187 23.724 123.731 23.352C123.275 22.968 122.609 22.776 121.733 22.776H119.357V27.15H121.733ZM129.427 19.644H132.235V33H129.427V19.644ZM138.747 23.172C140.247 23.172 141.399 23.532 142.203 24.252C143.007 24.96 143.409 26.034 143.409 27.474V33H140.781V31.794C140.253 32.694 139.269 33.144 137.829 33.144C137.085 33.144 136.437 33.018 135.885 32.766C135.345 32.514 134.931 32.166 134.643 31.722C134.355 31.278 134.211 30.774 134.211 30.21C134.211 29.31 134.547 28.602 135.219 28.086C135.903 27.57 136.953 27.312 138.369 27.312H140.601C140.601 26.7 140.415 26.232 140.043 25.908C139.671 25.572 139.113 25.404 138.369 25.404C137.853 25.404 137.343 25.488 136.839 25.656C136.347 25.812 135.927 26.028 135.579 26.304L134.571 24.342C135.099 23.97 135.729 23.682 136.461 23.478C137.205 23.274 137.967 23.172 138.747 23.172ZM138.531 31.254C139.011 31.254 139.437 31.146 139.809 30.93C140.181 30.702 140.445 30.372 140.601 29.94V28.95H138.675C137.523 28.95 136.947 29.328 136.947 30.084C136.947 30.444 137.085 30.732 137.361 30.948C137.649 31.152 138.039 31.254 138.531 31.254ZM155.387 23.316L151.013 33.594C150.569 34.71 150.017 35.496 149.357 35.952C148.709 36.408 147.923 36.636 146.999 36.636C146.495 36.636 145.997 36.558 145.505 36.402C145.013 36.246 144.611 36.03 144.299 35.754L145.325 33.756C145.541 33.948 145.787 34.098 146.063 34.206C146.351 34.314 146.633 34.368 146.909 34.368C147.293 34.368 147.605 34.272 147.845 34.08C148.085 33.9 148.301 33.594 148.493 33.162L148.529 33.072L144.335 23.316H147.233L149.951 29.886L152.687 23.316H155.387Z" fill="#001D38"/>
<path d="M0.980993 1L17.384 17.5L0.982604 34C0.690949 33.8767 0.442057 33.6694 0.267223 33.4043C0.0923891 33.1391 -0.000581134 32.8279 2.73327e-06 32.5097V2.49028C0.000126201 2.1725 0.0931966 1.86177 0.267627 1.59678C0.442057 1.33179 0.690141 1.12425 0.980993 1ZM18.5228 18.6452L22.231 22.3742L4.6134 32.6328L18.5228 18.6452ZM23.6759 13.4649L28.1974 16.0988C28.4415 16.2412 28.6442 16.4456 28.785 16.6915C28.9259 16.9374 29 17.2162 29 17.5C29 17.7838 28.9259 18.0626 28.785 18.3085C28.6442 18.5544 28.4415 18.7588 28.1974 18.9012L23.6743 21.5351L19.6617 17.5L23.6759 13.4649ZM4.6134 2.36717L22.2326 12.6242L18.5228 16.3548L4.6134 2.36717Z" fill="#001D38"/>
<path d="M0.980993 1L17.384 17.5L0.982604 34C0.690949 33.8767 0.442057 33.6694 0.267223 33.4043C0.0923891 33.1391 -0.000581134 32.8279 2.73327e-06 32.5097V2.49028C0.000126201 2.1725 0.0931966 1.86177 0.267627 1.59678C0.442057 1.33179 0.690141 1.12425 0.980993 1ZM18.5228 18.6452L22.231 22.3742L4.6134 32.6328L18.5228 18.6452ZM23.6759 13.4649L28.1974 16.0988C28.4415 16.2412 28.6442 16.4456 28.785 16.6915C28.9259 16.9374 29 17.2162 29 17.5C29 17.7838 28.9259 18.0626 28.785 18.3085C28.6442 18.5544 28.4415 18.7588 28.1974 18.9012L23.6743 21.5351L19.6617 17.5L23.6759 13.4649ZM4.6134 2.36717L22.2326 12.6242L18.5228 16.3548L4.6134 2.36717Z" fill="#001D38"/>
</svg>
