<svg width="75" height="89" viewBox="0 0 75 89" fill="none" xmlns="http://www.w3.org/2000/svg">
<path d="M74.4043 45.4017V76.0426C74.4007 79.4781 73.0343 82.7719 70.6049 85.2013C68.1756 87.6306 64.8818 88.997 61.4462 89.0006H12.958C9.52247 88.997 6.22865 87.6306 3.79933 85.2013C1.37001 82.7719 0.00362785 79.4781 0 76.0426L0 45.4017C0.00104413 43.3369 0.494966 41.3022 1.4407 39.4667C2.38644 37.6313 3.75666 36.0481 5.43745 34.8488L32.7926 15.3501V24.3885L9.70654 40.8345C8.98082 41.3542 8.38917 42.0391 7.98047 42.8327C7.57178 43.6262 7.35777 44.5056 7.35614 45.3982V76.0391C7.35796 77.5243 7.94874 78.9481 8.99891 79.9983C10.0491 81.0484 11.4729 81.6392 12.958 81.641H61.4462C62.9311 81.6383 64.3544 81.0472 65.4044 79.9973C66.4544 78.9473 67.0454 77.524 67.0481 76.0391V45.4017C67.046 44.5292 66.8405 43.6693 66.448 42.8902C66.0555 42.1111 65.4867 41.4342 64.7868 40.9133L64.6977 40.8379L54.1895 33.3516L50.2767 30.5626V21.531L54.1895 24.3269L68.9634 34.8591L69.0593 34.9311C70.711 36.133 72.0558 37.7075 72.9846 39.5269C73.9133 41.3462 74.3997 43.359 74.4043 45.4017Z" fill="white"/>
<path d="M54.1893 50.6056V8.74035L40.4844 0V8.72321L46.8297 12.773V19.0773L40.4844 14.6232V23.6651L46.8297 28.1192V50.6227C43.7944 51.5085 41.1804 53.4593 39.4676 56.1172C37.7548 58.775 37.0581 61.9615 37.5055 65.0916C37.9528 68.2217 39.5142 71.0855 41.903 73.1571C44.2918 75.2287 47.3476 76.3692 50.5095 76.3692C53.6715 76.3692 56.7273 75.2287 59.1161 73.1571C61.5048 71.0855 63.0662 68.2217 63.5136 65.0916C63.961 61.9615 63.2643 58.775 61.5515 56.1172C59.8387 53.4593 57.2247 51.5085 54.1893 50.6227V50.6056ZM50.5095 69.0079C49.3658 69.0073 48.248 68.6675 47.2973 68.0316C46.3467 67.3957 45.6059 66.4922 45.1687 65.4353C44.7315 64.3785 44.6175 63.2157 44.841 62.094C45.0646 60.9724 45.6157 59.9422 46.4246 59.1337C47.2336 58.3252 48.2641 57.7747 49.3859 57.5518C50.5077 57.329 51.6704 57.4437 52.727 57.8815C53.7836 58.3194 54.6867 59.0607 55.322 60.0117C55.9573 60.9627 56.2965 62.0807 56.2965 63.2245C56.2946 64.7584 55.6843 66.2289 54.5993 67.3132C53.5143 68.3975 52.0435 69.007 50.5095 69.0079Z" fill="#CFAA4A"/>
</svg>
