<svg width="169" height="63" viewBox="0 0 169 63" fill="none" xmlns="http://www.w3.org/2000/svg">
<rect width="169" height="63" rx="15" fill="black"/>
<path d="M57.47 16.2H61.6C62.636 16.2 63.5553 16.4053 64.358 16.816C65.1607 17.2267 65.7813 17.8053 66.22 18.552C66.668 19.2893 66.892 20.1387 66.892 21.1C66.892 22.0613 66.668 22.9153 66.22 23.662C65.7813 24.3993 65.1607 24.9733 64.358 25.384C63.5553 25.7947 62.636 26 61.6 26H57.47V16.2ZM61.516 24.782C62.3093 24.782 63.0047 24.628 63.602 24.32C64.2087 24.012 64.6753 23.5827 65.002 23.032C65.3287 22.472 65.492 21.828 65.492 21.1C65.492 20.372 65.3287 19.7327 65.002 19.182C64.6753 18.622 64.2087 18.188 63.602 17.88C63.0047 17.572 62.3093 17.418 61.516 17.418H58.87V24.782H61.516ZM72.0184 26.084C71.2811 26.084 70.6184 25.9207 70.0304 25.594C69.4424 25.2673 68.9804 24.8193 68.6444 24.25C68.3177 23.6713 68.1544 23.018 68.1544 22.29C68.1544 21.562 68.3177 20.9133 68.6444 20.344C68.9804 19.7653 69.4424 19.3173 70.0304 19C70.6184 18.6733 71.2811 18.51 72.0184 18.51C72.7557 18.51 73.4137 18.6733 73.9924 19C74.5804 19.3173 75.0377 19.7653 75.3644 20.344C75.7004 20.9133 75.8684 21.562 75.8684 22.29C75.8684 23.018 75.7004 23.6713 75.3644 24.25C75.0377 24.8193 74.5804 25.2673 73.9924 25.594C73.4137 25.9207 72.7557 26.084 72.0184 26.084ZM72.0184 24.908C72.4944 24.908 72.9191 24.8007 73.2924 24.586C73.6751 24.362 73.9737 24.054 74.1884 23.662C74.4031 23.2607 74.5104 22.8033 74.5104 22.29C74.5104 21.7767 74.4031 21.324 74.1884 20.932C73.9737 20.5307 73.6751 20.2227 73.2924 20.008C72.9191 19.7933 72.4944 19.686 72.0184 19.686C71.5424 19.686 71.1131 19.7933 70.7304 20.008C70.3571 20.2227 70.0584 20.5307 69.8344 20.932C69.6197 21.324 69.5124 21.7767 69.5124 22.29C69.5124 22.8033 69.6197 23.2607 69.8344 23.662C70.0584 24.054 70.3571 24.362 70.7304 24.586C71.1131 24.8007 71.5424 24.908 72.0184 24.908ZM88.75 18.58L85.978 26H84.69L82.548 20.372L80.378 26H79.09L76.332 18.58H77.606L79.762 24.488L82.002 18.58H83.136L85.334 24.516L87.546 18.58H88.75ZM94.0758 18.51C95.0185 18.51 95.7652 18.7853 96.3158 19.336C96.8758 19.8773 97.1558 20.6753 97.1558 21.73V26H95.8118V21.884C95.8118 21.1653 95.6392 20.624 95.2938 20.26C94.9485 19.896 94.4538 19.714 93.8098 19.714C93.0818 19.714 92.5078 19.9287 92.0878 20.358C91.6678 20.778 91.4578 21.3847 91.4578 22.178V26H90.1138V18.58H91.4018V19.7C91.6725 19.3173 92.0365 19.0233 92.4938 18.818C92.9605 18.6127 93.4878 18.51 94.0758 18.51ZM99.6431 15.612H100.987V26H99.6431V15.612ZM106.731 26.084C105.994 26.084 105.331 25.9207 104.743 25.594C104.155 25.2673 103.693 24.8193 103.357 24.25C103.031 23.6713 102.867 23.018 102.867 22.29C102.867 21.562 103.031 20.9133 103.357 20.344C103.693 19.7653 104.155 19.3173 104.743 19C105.331 18.6733 105.994 18.51 106.731 18.51C107.469 18.51 108.127 18.6733 108.705 19C109.293 19.3173 109.751 19.7653 110.077 20.344C110.413 20.9133 110.581 21.562 110.581 22.29C110.581 23.018 110.413 23.6713 110.077 24.25C109.751 24.8193 109.293 25.2673 108.705 25.594C108.127 25.9207 107.469 26.084 106.731 26.084ZM106.731 24.908C107.207 24.908 107.632 24.8007 108.005 24.586C108.388 24.362 108.687 24.054 108.901 23.662C109.116 23.2607 109.223 22.8033 109.223 22.29C109.223 21.7767 109.116 21.324 108.901 20.932C108.687 20.5307 108.388 20.2227 108.005 20.008C107.632 19.7933 107.207 19.686 106.731 19.686C106.255 19.686 105.826 19.7933 105.443 20.008C105.07 20.2227 104.771 20.5307 104.547 20.932C104.333 21.324 104.225 21.7767 104.225 22.29C104.225 22.8033 104.333 23.2607 104.547 23.662C104.771 24.054 105.07 24.362 105.443 24.586C105.826 24.8007 106.255 24.908 106.731 24.908ZM115.074 18.51C116.1 18.51 116.884 18.762 117.426 19.266C117.976 19.77 118.252 20.5213 118.252 21.52V26H116.978V25.02C116.754 25.3653 116.432 25.6313 116.012 25.818C115.601 25.9953 115.111 26.084 114.542 26.084C113.711 26.084 113.044 25.8833 112.54 25.482C112.045 25.0807 111.798 24.5533 111.798 23.9C111.798 23.2467 112.036 22.724 112.512 22.332C112.988 21.9307 113.744 21.73 114.78 21.73H116.908V21.464C116.908 20.8853 116.74 20.442 116.404 20.134C116.068 19.826 115.573 19.672 114.92 19.672C114.481 19.672 114.052 19.7467 113.632 19.896C113.212 20.036 112.857 20.2273 112.568 20.47L112.008 19.462C112.39 19.154 112.848 18.9207 113.38 18.762C113.912 18.594 114.476 18.51 115.074 18.51ZM114.766 25.048C115.279 25.048 115.722 24.936 116.096 24.712C116.469 24.4787 116.74 24.152 116.908 23.732V22.696H114.836C113.697 22.696 113.128 23.0787 113.128 23.844C113.128 24.2173 113.272 24.5113 113.562 24.726C113.851 24.9407 114.252 25.048 114.766 25.048ZM127.78 15.612V26H126.492V24.824C126.193 25.2347 125.815 25.5473 125.358 25.762C124.901 25.9767 124.397 26.084 123.846 26.084C123.127 26.084 122.483 25.9253 121.914 25.608C121.345 25.2907 120.897 24.8473 120.57 24.278C120.253 23.6993 120.094 23.0367 120.094 22.29C120.094 21.5433 120.253 20.8853 120.57 20.316C120.897 19.7467 121.345 19.3033 121.914 18.986C122.483 18.6687 123.127 18.51 123.846 18.51C124.378 18.51 124.868 18.6127 125.316 18.818C125.764 19.014 126.137 19.308 126.436 19.7V15.612H127.78ZM123.958 24.908C124.425 24.908 124.849 24.8007 125.232 24.586C125.615 24.362 125.913 24.054 126.128 23.662C126.343 23.2607 126.45 22.8033 126.45 22.29C126.45 21.7767 126.343 21.324 126.128 20.932C125.913 20.5307 125.615 20.2227 125.232 20.008C124.849 19.7933 124.425 19.686 123.958 19.686C123.482 19.686 123.053 19.7933 122.67 20.008C122.297 20.2227 121.998 20.5307 121.774 20.932C121.559 21.324 121.452 21.7767 121.452 22.29C121.452 22.8033 121.559 23.2607 121.774 23.662C121.998 24.054 122.297 24.362 122.67 24.586C123.053 24.8007 123.482 24.908 123.958 24.908ZM137.261 26.084C136.523 26.084 135.861 25.9207 135.273 25.594C134.685 25.2673 134.223 24.8193 133.887 24.25C133.56 23.6713 133.397 23.018 133.397 22.29C133.397 21.562 133.56 20.9133 133.887 20.344C134.223 19.7653 134.685 19.3173 135.273 19C135.861 18.6733 136.523 18.51 137.261 18.51C137.998 18.51 138.656 18.6733 139.235 19C139.823 19.3173 140.28 19.7653 140.607 20.344C140.943 20.9133 141.111 21.562 141.111 22.29C141.111 23.018 140.943 23.6713 140.607 24.25C140.28 24.8193 139.823 25.2673 139.235 25.594C138.656 25.9207 137.998 26.084 137.261 26.084ZM137.261 24.908C137.737 24.908 138.161 24.8007 138.535 24.586C138.917 24.362 139.216 24.054 139.431 23.662C139.645 23.2607 139.753 22.8033 139.753 22.29C139.753 21.7767 139.645 21.324 139.431 20.932C139.216 20.5307 138.917 20.2227 138.535 20.008C138.161 19.7933 137.737 19.686 137.261 19.686C136.785 19.686 136.355 19.7933 135.973 20.008C135.599 20.2227 135.301 20.5307 135.077 20.932C134.862 21.324 134.755 21.7767 134.755 22.29C134.755 22.8033 134.862 23.2607 135.077 23.662C135.301 24.054 135.599 24.362 135.973 24.586C136.355 24.8007 136.785 24.908 137.261 24.908ZM146.931 18.51C147.874 18.51 148.621 18.7853 149.171 19.336C149.731 19.8773 150.011 20.6753 150.011 21.73V26H148.667V21.884C148.667 21.1653 148.495 20.624 148.149 20.26C147.804 19.896 147.309 19.714 146.665 19.714C145.937 19.714 145.363 19.9287 144.943 20.358C144.523 20.778 144.313 21.3847 144.313 22.178V26H142.969V18.58H144.257V19.7C144.528 19.3173 144.892 19.0233 145.349 18.818C145.816 18.6127 146.343 18.51 146.931 18.51Z" fill="white"/>
<path d="M66.792 42.3H60.942L59.826 45H56.838L62.454 32.4H65.334L70.968 45H67.908L66.792 42.3ZM65.874 40.086L63.876 35.262L61.878 40.086H65.874ZM77.8013 35.172C78.7013 35.172 79.5173 35.382 80.2493 35.802C80.9933 36.21 81.5753 36.792 81.9953 37.548C82.4153 38.292 82.6253 39.162 82.6253 40.158C82.6253 41.154 82.4153 42.03 81.9953 42.786C81.5753 43.53 80.9933 44.112 80.2493 44.532C79.5173 44.94 78.7013 45.144 77.8013 45.144C76.5653 45.144 75.5933 44.754 74.8853 43.974V48.492H72.0773V35.316H74.7593V36.432C75.4553 35.592 76.4693 35.172 77.8013 35.172ZM77.3153 42.84C78.0353 42.84 78.6233 42.6 79.0793 42.12C79.5473 41.628 79.7812 40.974 79.7812 40.158C79.7812 39.342 79.5473 38.694 79.0793 38.214C78.6233 37.722 78.0353 37.476 77.3153 37.476C76.5953 37.476 76.0013 37.722 75.5332 38.214C75.0773 38.694 74.8493 39.342 74.8493 40.158C74.8493 40.974 75.0773 41.628 75.5332 42.12C76.0013 42.6 76.5953 42.84 77.3153 42.84ZM90.229 35.172C91.129 35.172 91.945 35.382 92.677 35.802C93.421 36.21 94.003 36.792 94.423 37.548C94.843 38.292 95.053 39.162 95.053 40.158C95.053 41.154 94.843 42.03 94.423 42.786C94.003 43.53 93.421 44.112 92.677 44.532C91.945 44.94 91.129 45.144 90.229 45.144C88.993 45.144 88.021 44.754 87.313 43.974V48.492H84.505V35.316H87.187V36.432C87.883 35.592 88.897 35.172 90.229 35.172ZM89.743 42.84C90.463 42.84 91.051 42.6 91.507 42.12C91.975 41.628 92.209 40.974 92.209 40.158C92.209 39.342 91.975 38.694 91.507 38.214C91.051 37.722 90.463 37.476 89.743 37.476C89.023 37.476 88.429 37.722 87.961 38.214C87.505 38.694 87.277 39.342 87.277 40.158C87.277 40.974 87.505 41.628 87.961 42.12C88.429 42.6 89.023 42.84 89.743 42.84ZM106.368 45.216C105.372 45.216 104.406 45.084 103.47 44.82C102.546 44.544 101.802 44.19 101.238 43.758L102.228 41.562C102.768 41.958 103.41 42.276 104.154 42.516C104.898 42.756 105.642 42.876 106.386 42.876C107.214 42.876 107.826 42.756 108.222 42.516C108.618 42.264 108.816 41.934 108.816 41.526C108.816 41.226 108.696 40.98 108.456 40.788C108.228 40.584 107.928 40.422 107.556 40.302C107.196 40.182 106.704 40.05 106.08 39.906C105.12 39.678 104.334 39.45 103.722 39.222C103.11 38.994 102.582 38.628 102.138 38.124C101.706 37.62 101.49 36.948 101.49 36.108C101.49 35.376 101.688 34.716 102.084 34.128C102.48 33.528 103.074 33.054 103.866 32.706C104.67 32.358 105.648 32.184 106.8 32.184C107.604 32.184 108.39 32.28 109.158 32.472C109.926 32.664 110.598 32.94 111.174 33.3L110.274 35.514C109.11 34.854 107.946 34.524 106.782 34.524C105.966 34.524 105.36 34.656 104.964 34.92C104.58 35.184 104.388 35.532 104.388 35.964C104.388 36.396 104.61 36.72 105.054 36.936C105.51 37.14 106.2 37.344 107.124 37.548C108.084 37.776 108.87 38.004 109.482 38.232C110.094 38.46 110.616 38.82 111.048 39.312C111.492 39.804 111.714 40.47 111.714 41.31C111.714 42.03 111.51 42.69 111.102 43.29C110.706 43.878 110.106 44.346 109.302 44.694C108.498 45.042 107.52 45.216 106.368 45.216ZM119.755 44.532C119.479 44.736 119.137 44.892 118.729 45C118.333 45.096 117.913 45.144 117.469 45.144C116.317 45.144 115.423 44.85 114.787 44.262C114.163 43.674 113.851 42.81 113.851 41.67V37.692H112.357V35.532H113.851V33.174H116.659V35.532H119.071V37.692H116.659V41.634C116.659 42.042 116.761 42.36 116.965 42.588C117.181 42.804 117.481 42.912 117.865 42.912C118.309 42.912 118.687 42.792 118.999 42.552L119.755 44.532ZM125.64 45.144C124.62 45.144 123.702 44.934 122.886 44.514C122.082 44.082 121.452 43.488 120.996 42.732C120.54 41.976 120.312 41.118 120.312 40.158C120.312 39.198 120.54 38.34 120.996 37.584C121.452 36.828 122.082 36.24 122.886 35.82C123.702 35.388 124.62 35.172 125.64 35.172C126.66 35.172 127.572 35.388 128.376 35.82C129.18 36.24 129.81 36.828 130.266 37.584C130.722 38.34 130.95 39.198 130.95 40.158C130.95 41.118 130.722 41.976 130.266 42.732C129.81 43.488 129.18 44.082 128.376 44.514C127.572 44.934 126.66 45.144 125.64 45.144ZM125.64 42.84C126.36 42.84 126.948 42.6 127.404 42.12C127.872 41.628 128.106 40.974 128.106 40.158C128.106 39.342 127.872 38.694 127.404 38.214C126.948 37.722 126.36 37.476 125.64 37.476C124.92 37.476 124.326 37.722 123.858 38.214C123.39 38.694 123.156 39.342 123.156 40.158C123.156 40.974 123.39 41.628 123.858 42.12C124.326 42.6 124.92 42.84 125.64 42.84ZM135.509 36.594C135.845 36.126 136.295 35.772 136.859 35.532C137.435 35.292 138.095 35.172 138.839 35.172V37.764C138.527 37.74 138.317 37.728 138.209 37.728C137.405 37.728 136.775 37.956 136.319 38.412C135.863 38.856 135.635 39.528 135.635 40.428V45H132.827V35.316H135.509V36.594ZM149.907 40.194C149.907 40.23 149.889 40.482 149.853 40.95H142.527C142.659 41.55 142.971 42.024 143.463 42.372C143.955 42.72 144.567 42.894 145.299 42.894C145.803 42.894 146.247 42.822 146.631 42.678C147.027 42.522 147.393 42.282 147.729 41.958L149.223 43.578C148.311 44.622 146.979 45.144 145.227 45.144C144.135 45.144 143.169 44.934 142.329 44.514C141.489 44.082 140.841 43.488 140.385 42.732C139.929 41.976 139.701 41.118 139.701 40.158C139.701 39.21 139.923 38.358 140.367 37.602C140.823 36.834 141.441 36.24 142.221 35.82C143.013 35.388 143.895 35.172 144.867 35.172C145.815 35.172 146.673 35.376 147.441 35.784C148.209 36.192 148.809 36.78 149.241 37.548C149.685 38.304 149.907 39.186 149.907 40.194ZM144.885 37.296C144.249 37.296 143.715 37.476 143.283 37.836C142.851 38.196 142.587 38.688 142.491 39.312H147.261C147.165 38.7 146.901 38.214 146.469 37.854C146.037 37.482 145.509 37.296 144.885 37.296Z" fill="white"/>
<path fill-rule="evenodd" clip-rule="evenodd" d="M35.3752 18.2691C36.5359 16.8748 37.3152 14.9319 37.1024 13C35.4333 13.0674 33.4132 14.1069 32.218 15.5012C31.1444 16.7359 30.2048 18.7118 30.4591 20.6053C32.3189 20.7496 34.2201 19.6647 35.378 18.2691H35.3752ZM39.5508 30.5315C39.5978 35.5256 43.953 37.188 44 37.21C43.9655 37.3269 43.3064 39.5778 41.7063 41.903C40.3246 43.9133 38.8904 45.9167 36.6299 45.9579C34.4094 45.9978 33.6964 44.6475 31.1568 44.6475C28.62 44.6475 27.8269 45.9167 25.7239 45.9978C23.5435 46.0803 21.8827 43.8239 20.4871 41.8219C17.6408 37.7243 15.4645 30.2442 18.3869 25.1951C19.8363 22.687 22.4312 21.0989 25.2472 21.059C27.3889 21.0178 29.4103 22.4932 30.7188 22.4932C32.0287 22.4932 34.4854 20.7194 37.0679 20.9793C38.1498 21.0246 41.184 21.4138 43.1337 24.2532C42.9761 24.3494 39.5121 26.357 39.5494 30.5315" fill="white"/>
</svg>
