<svg width="190" height="63" viewBox="0 0 190 63" fill="none" xmlns="http://www.w3.org/2000/svg">
<rect width="190" height="63" rx="15" fill="black"/>
<path d="M60.47 16.2H64.6C65.636 16.2 66.5553 16.4053 67.358 16.816C68.1607 17.2267 68.7813 17.8053 69.22 18.552C69.668 19.2893 69.892 20.1387 69.892 21.1C69.892 22.0613 69.668 22.9153 69.22 23.662C68.7813 24.3993 68.1607 24.9733 67.358 25.384C66.5553 25.7947 65.636 26 64.6 26H60.47V16.2ZM64.516 24.782C65.3093 24.782 66.0047 24.628 66.602 24.32C67.2087 24.012 67.6753 23.5827 68.002 23.032C68.3287 22.472 68.492 21.828 68.492 21.1C68.492 20.372 68.3287 19.7327 68.002 19.182C67.6753 18.622 67.2087 18.188 66.602 17.88C66.0047 17.572 65.3093 17.418 64.516 17.418H61.87V24.782H64.516ZM75.0184 26.084C74.2811 26.084 73.6184 25.9207 73.0304 25.594C72.4424 25.2673 71.9804 24.8193 71.6444 24.25C71.3177 23.6713 71.1544 23.018 71.1544 22.29C71.1544 21.562 71.3177 20.9133 71.6444 20.344C71.9804 19.7653 72.4424 19.3173 73.0304 19C73.6184 18.6733 74.2811 18.51 75.0184 18.51C75.7557 18.51 76.4137 18.6733 76.9924 19C77.5804 19.3173 78.0377 19.7653 78.3644 20.344C78.7004 20.9133 78.8684 21.562 78.8684 22.29C78.8684 23.018 78.7004 23.6713 78.3644 24.25C78.0377 24.8193 77.5804 25.2673 76.9924 25.594C76.4137 25.9207 75.7557 26.084 75.0184 26.084ZM75.0184 24.908C75.4944 24.908 75.9191 24.8007 76.2924 24.586C76.6751 24.362 76.9737 24.054 77.1884 23.662C77.4031 23.2607 77.5104 22.8033 77.5104 22.29C77.5104 21.7767 77.4031 21.324 77.1884 20.932C76.9737 20.5307 76.6751 20.2227 76.2924 20.008C75.9191 19.7933 75.4944 19.686 75.0184 19.686C74.5424 19.686 74.1131 19.7933 73.7304 20.008C73.3571 20.2227 73.0584 20.5307 72.8344 20.932C72.6197 21.324 72.5124 21.7767 72.5124 22.29C72.5124 22.8033 72.6197 23.2607 72.8344 23.662C73.0584 24.054 73.3571 24.362 73.7304 24.586C74.1131 24.8007 74.5424 24.908 75.0184 24.908ZM91.75 18.58L88.978 26H87.69L85.548 20.372L83.378 26H82.09L79.332 18.58H80.606L82.762 24.488L85.002 18.58H86.136L88.334 24.516L90.546 18.58H91.75ZM97.0758 18.51C98.0185 18.51 98.7652 18.7853 99.3158 19.336C99.8758 19.8773 100.156 20.6753 100.156 21.73V26H98.8118V21.884C98.8118 21.1653 98.6392 20.624 98.2938 20.26C97.9485 19.896 97.4538 19.714 96.8098 19.714C96.0818 19.714 95.5078 19.9287 95.0878 20.358C94.6678 20.778 94.4578 21.3847 94.4578 22.178V26H93.1138V18.58H94.4018V19.7C94.6725 19.3173 95.0365 19.0233 95.4938 18.818C95.9605 18.6127 96.4878 18.51 97.0758 18.51ZM102.643 15.612H103.987V26H102.643V15.612ZM109.731 26.084C108.994 26.084 108.331 25.9207 107.743 25.594C107.155 25.2673 106.693 24.8193 106.357 24.25C106.031 23.6713 105.867 23.018 105.867 22.29C105.867 21.562 106.031 20.9133 106.357 20.344C106.693 19.7653 107.155 19.3173 107.743 19C108.331 18.6733 108.994 18.51 109.731 18.51C110.469 18.51 111.127 18.6733 111.705 19C112.293 19.3173 112.751 19.7653 113.077 20.344C113.413 20.9133 113.581 21.562 113.581 22.29C113.581 23.018 113.413 23.6713 113.077 24.25C112.751 24.8193 112.293 25.2673 111.705 25.594C111.127 25.9207 110.469 26.084 109.731 26.084ZM109.731 24.908C110.207 24.908 110.632 24.8007 111.005 24.586C111.388 24.362 111.687 24.054 111.901 23.662C112.116 23.2607 112.223 22.8033 112.223 22.29C112.223 21.7767 112.116 21.324 111.901 20.932C111.687 20.5307 111.388 20.2227 111.005 20.008C110.632 19.7933 110.207 19.686 109.731 19.686C109.255 19.686 108.826 19.7933 108.443 20.008C108.07 20.2227 107.771 20.5307 107.547 20.932C107.333 21.324 107.225 21.7767 107.225 22.29C107.225 22.8033 107.333 23.2607 107.547 23.662C107.771 24.054 108.07 24.362 108.443 24.586C108.826 24.8007 109.255 24.908 109.731 24.908ZM118.074 18.51C119.1 18.51 119.884 18.762 120.426 19.266C120.976 19.77 121.252 20.5213 121.252 21.52V26H119.978V25.02C119.754 25.3653 119.432 25.6313 119.012 25.818C118.601 25.9953 118.111 26.084 117.542 26.084C116.711 26.084 116.044 25.8833 115.54 25.482C115.045 25.0807 114.798 24.5533 114.798 23.9C114.798 23.2467 115.036 22.724 115.512 22.332C115.988 21.9307 116.744 21.73 117.78 21.73H119.908V21.464C119.908 20.8853 119.74 20.442 119.404 20.134C119.068 19.826 118.573 19.672 117.92 19.672C117.481 19.672 117.052 19.7467 116.632 19.896C116.212 20.036 115.857 20.2273 115.568 20.47L115.008 19.462C115.39 19.154 115.848 18.9207 116.38 18.762C116.912 18.594 117.476 18.51 118.074 18.51ZM117.766 25.048C118.279 25.048 118.722 24.936 119.096 24.712C119.469 24.4787 119.74 24.152 119.908 23.732V22.696H117.836C116.697 22.696 116.128 23.0787 116.128 23.844C116.128 24.2173 116.272 24.5113 116.562 24.726C116.851 24.9407 117.252 25.048 117.766 25.048ZM130.78 15.612V26H129.492V24.824C129.193 25.2347 128.815 25.5473 128.358 25.762C127.901 25.9767 127.397 26.084 126.846 26.084C126.127 26.084 125.483 25.9253 124.914 25.608C124.345 25.2907 123.897 24.8473 123.57 24.278C123.253 23.6993 123.094 23.0367 123.094 22.29C123.094 21.5433 123.253 20.8853 123.57 20.316C123.897 19.7467 124.345 19.3033 124.914 18.986C125.483 18.6687 126.127 18.51 126.846 18.51C127.378 18.51 127.868 18.6127 128.316 18.818C128.764 19.014 129.137 19.308 129.436 19.7V15.612H130.78ZM126.958 24.908C127.425 24.908 127.849 24.8007 128.232 24.586C128.615 24.362 128.913 24.054 129.128 23.662C129.343 23.2607 129.45 22.8033 129.45 22.29C129.45 21.7767 129.343 21.324 129.128 20.932C128.913 20.5307 128.615 20.2227 128.232 20.008C127.849 19.7933 127.425 19.686 126.958 19.686C126.482 19.686 126.053 19.7933 125.67 20.008C125.297 20.2227 124.998 20.5307 124.774 20.932C124.559 21.324 124.452 21.7767 124.452 22.29C124.452 22.8033 124.559 23.2607 124.774 23.662C124.998 24.054 125.297 24.362 125.67 24.586C126.053 24.8007 126.482 24.908 126.958 24.908ZM140.261 26.084C139.523 26.084 138.861 25.9207 138.273 25.594C137.685 25.2673 137.223 24.8193 136.887 24.25C136.56 23.6713 136.397 23.018 136.397 22.29C136.397 21.562 136.56 20.9133 136.887 20.344C137.223 19.7653 137.685 19.3173 138.273 19C138.861 18.6733 139.523 18.51 140.261 18.51C140.998 18.51 141.656 18.6733 142.235 19C142.823 19.3173 143.28 19.7653 143.607 20.344C143.943 20.9133 144.111 21.562 144.111 22.29C144.111 23.018 143.943 23.6713 143.607 24.25C143.28 24.8193 142.823 25.2673 142.235 25.594C141.656 25.9207 140.998 26.084 140.261 26.084ZM140.261 24.908C140.737 24.908 141.161 24.8007 141.535 24.586C141.917 24.362 142.216 24.054 142.431 23.662C142.645 23.2607 142.753 22.8033 142.753 22.29C142.753 21.7767 142.645 21.324 142.431 20.932C142.216 20.5307 141.917 20.2227 141.535 20.008C141.161 19.7933 140.737 19.686 140.261 19.686C139.785 19.686 139.355 19.7933 138.973 20.008C138.599 20.2227 138.301 20.5307 138.077 20.932C137.862 21.324 137.755 21.7767 137.755 22.29C137.755 22.8033 137.862 23.2607 138.077 23.662C138.301 24.054 138.599 24.362 138.973 24.586C139.355 24.8007 139.785 24.908 140.261 24.908ZM149.931 18.51C150.874 18.51 151.621 18.7853 152.171 19.336C152.731 19.8773 153.011 20.6753 153.011 21.73V26H151.667V21.884C151.667 21.1653 151.495 20.624 151.149 20.26C150.804 19.896 150.309 19.714 149.665 19.714C148.937 19.714 148.363 19.9287 147.943 20.358C147.523 20.778 147.313 21.3847 147.313 22.178V26H145.969V18.58H147.257V19.7C147.528 19.3173 147.892 19.0233 148.349 18.818C148.816 18.6127 149.343 18.51 149.931 18.51Z" fill="white"/>
<path d="M69.008 39.502H71.672V44.614C70.988 45.13 70.196 45.526 69.296 45.802C68.396 46.078 67.49 46.216 66.578 46.216C65.27 46.216 64.094 45.94 63.05 45.388C62.006 44.824 61.184 44.05 60.584 43.066C59.996 42.07 59.702 40.948 59.702 39.7C59.702 38.452 59.996 37.336 60.584 36.352C61.184 35.356 62.012 34.582 63.068 34.03C64.124 33.466 65.312 33.184 66.632 33.184C67.736 33.184 68.738 33.37 69.638 33.742C70.538 34.114 71.294 34.654 71.906 35.362L70.034 37.09C69.134 36.142 68.048 35.668 66.776 35.668C65.972 35.668 65.258 35.836 64.634 36.172C64.01 36.508 63.524 36.982 63.176 37.594C62.828 38.206 62.654 38.908 62.654 39.7C62.654 40.48 62.828 41.176 63.176 41.788C63.524 42.4 64.004 42.88 64.616 43.228C65.24 43.564 65.948 43.732 66.74 43.732C67.58 43.732 68.336 43.552 69.008 43.192V39.502ZM78.7907 46.144C77.7707 46.144 76.8527 45.934 76.0367 45.514C75.2327 45.082 74.6027 44.488 74.1467 43.732C73.6907 42.976 73.4627 42.118 73.4627 41.158C73.4627 40.198 73.6907 39.34 74.1467 38.584C74.6027 37.828 75.2327 37.24 76.0367 36.82C76.8527 36.388 77.7707 36.172 78.7907 36.172C79.8107 36.172 80.7227 36.388 81.5267 36.82C82.3307 37.24 82.9607 37.828 83.4167 38.584C83.8727 39.34 84.1007 40.198 84.1007 41.158C84.1007 42.118 83.8727 42.976 83.4167 43.732C82.9607 44.488 82.3307 45.082 81.5267 45.514C80.7227 45.934 79.8107 46.144 78.7907 46.144ZM78.7907 43.84C79.5107 43.84 80.0987 43.6 80.5547 43.12C81.0227 42.628 81.2567 41.974 81.2567 41.158C81.2567 40.342 81.0227 39.694 80.5547 39.214C80.0987 38.722 79.5107 38.476 78.7907 38.476C78.0707 38.476 77.4767 38.722 77.0087 39.214C76.5407 39.694 76.3067 40.342 76.3067 41.158C76.3067 41.974 76.5407 42.628 77.0087 43.12C77.4767 43.6 78.0707 43.84 78.7907 43.84ZM90.5856 46.144C89.5656 46.144 88.6476 45.934 87.8316 45.514C87.0276 45.082 86.3976 44.488 85.9416 43.732C85.4856 42.976 85.2576 42.118 85.2576 41.158C85.2576 40.198 85.4856 39.34 85.9416 38.584C86.3976 37.828 87.0276 37.24 87.8316 36.82C88.6476 36.388 89.5656 36.172 90.5856 36.172C91.6056 36.172 92.5176 36.388 93.3216 36.82C94.1256 37.24 94.7556 37.828 95.2116 38.584C95.6676 39.34 95.8956 40.198 95.8956 41.158C95.8956 42.118 95.6676 42.976 95.2116 43.732C94.7556 44.488 94.1256 45.082 93.3216 45.514C92.5176 45.934 91.6056 46.144 90.5856 46.144ZM90.5856 43.84C91.3056 43.84 91.8936 43.6 92.3496 43.12C92.8176 42.628 93.0516 41.974 93.0516 41.158C93.0516 40.342 92.8176 39.694 92.3496 39.214C91.8936 38.722 91.3056 38.476 90.5856 38.476C89.8656 38.476 89.2716 38.722 88.8036 39.214C88.3356 39.694 88.1016 40.342 88.1016 41.158C88.1016 41.974 88.3356 42.628 88.8036 43.12C89.2716 43.6 89.8656 43.84 90.5856 43.84ZM107.763 36.316V44.38C107.763 46.156 107.301 47.476 106.377 48.34C105.453 49.204 104.103 49.636 102.327 49.636C101.391 49.636 100.503 49.522 99.6626 49.294C98.8226 49.066 98.1266 48.736 97.5746 48.304L98.6906 46.288C99.0986 46.624 99.6146 46.888 100.239 47.08C100.863 47.284 101.487 47.386 102.111 47.386C103.083 47.386 103.797 47.164 104.253 46.72C104.721 46.288 104.955 45.628 104.955 44.74V44.326C104.223 45.13 103.203 45.532 101.895 45.532C101.007 45.532 100.191 45.34 99.4466 44.956C98.7146 44.56 98.1326 44.008 97.7006 43.3C97.2686 42.592 97.0526 41.776 97.0526 40.852C97.0526 39.928 97.2686 39.112 97.7006 38.404C98.1326 37.696 98.7146 37.15 99.4466 36.766C100.191 36.37 101.007 36.172 101.895 36.172C103.299 36.172 104.367 36.634 105.099 37.558V36.316H107.763ZM102.453 43.228C103.197 43.228 103.803 43.012 104.271 42.58C104.751 42.136 104.991 41.56 104.991 40.852C104.991 40.144 104.751 39.574 104.271 39.142C103.803 38.698 103.197 38.476 102.453 38.476C101.709 38.476 101.097 38.698 100.617 39.142C100.137 39.574 99.8966 40.144 99.8966 40.852C99.8966 41.56 100.137 42.136 100.617 42.58C101.097 43.012 101.709 43.228 102.453 43.228ZM110.376 32.644H113.184V46H110.376V32.644ZM125.276 41.194C125.276 41.23 125.258 41.482 125.222 41.95H117.896C118.028 42.55 118.34 43.024 118.832 43.372C119.324 43.72 119.936 43.894 120.668 43.894C121.172 43.894 121.616 43.822 122 43.678C122.396 43.522 122.762 43.282 123.098 42.958L124.592 44.578C123.68 45.622 122.348 46.144 120.596 46.144C119.504 46.144 118.538 45.934 117.698 45.514C116.858 45.082 116.21 44.488 115.754 43.732C115.298 42.976 115.07 42.118 115.07 41.158C115.07 40.21 115.292 39.358 115.736 38.602C116.192 37.834 116.81 37.24 117.59 36.82C118.382 36.388 119.264 36.172 120.236 36.172C121.184 36.172 122.042 36.376 122.81 36.784C123.578 37.192 124.178 37.78 124.61 38.548C125.054 39.304 125.276 40.186 125.276 41.194ZM120.254 38.296C119.618 38.296 119.084 38.476 118.652 38.836C118.22 39.196 117.956 39.688 117.86 40.312H122.63C122.534 39.7 122.27 39.214 121.838 38.854C121.406 38.482 120.878 38.296 120.254 38.296ZM137.895 33.4C139.011 33.4 139.977 33.586 140.793 33.958C141.621 34.33 142.257 34.858 142.701 35.542C143.145 36.226 143.367 37.036 143.367 37.972C143.367 38.896 143.145 39.706 142.701 40.402C142.257 41.086 141.621 41.614 140.793 41.986C139.977 42.346 139.011 42.526 137.895 42.526H135.357V46H132.441V33.4H137.895ZM137.733 40.15C138.609 40.15 139.275 39.964 139.731 39.592C140.187 39.208 140.415 38.668 140.415 37.972C140.415 37.264 140.187 36.724 139.731 36.352C139.275 35.968 138.609 35.776 137.733 35.776H135.357V40.15H137.733ZM145.427 32.644H148.235V46H145.427V32.644ZM154.747 36.172C156.247 36.172 157.399 36.532 158.203 37.252C159.007 37.96 159.409 39.034 159.409 40.474V46H156.781V44.794C156.253 45.694 155.269 46.144 153.829 46.144C153.085 46.144 152.437 46.018 151.885 45.766C151.345 45.514 150.931 45.166 150.643 44.722C150.355 44.278 150.211 43.774 150.211 43.21C150.211 42.31 150.547 41.602 151.219 41.086C151.903 40.57 152.953 40.312 154.369 40.312H156.601C156.601 39.7 156.415 39.232 156.043 38.908C155.671 38.572 155.113 38.404 154.369 38.404C153.853 38.404 153.343 38.488 152.839 38.656C152.347 38.812 151.927 39.028 151.579 39.304L150.571 37.342C151.099 36.97 151.729 36.682 152.461 36.478C153.205 36.274 153.967 36.172 154.747 36.172ZM154.531 44.254C155.011 44.254 155.437 44.146 155.809 43.93C156.181 43.702 156.445 43.372 156.601 42.94V41.95H154.675C153.523 41.95 152.947 42.328 152.947 43.084C152.947 43.444 153.085 43.732 153.361 43.948C153.649 44.152 154.039 44.254 154.531 44.254ZM171.387 36.316L167.013 46.594C166.569 47.71 166.017 48.496 165.357 48.952C164.709 49.408 163.923 49.636 162.999 49.636C162.495 49.636 161.997 49.558 161.505 49.402C161.013 49.246 160.611 49.03 160.299 48.754L161.325 46.756C161.541 46.948 161.787 47.098 162.063 47.206C162.351 47.314 162.633 47.368 162.909 47.368C163.293 47.368 163.605 47.272 163.845 47.08C164.085 46.9 164.301 46.594 164.493 46.162L164.529 46.072L160.335 36.316H163.233L165.951 42.886L168.687 36.316H171.387Z" fill="white"/>
<path d="M38.6571 35.6207C42.2084 33.6657 44.9005 32.176 45.1325 32.0602C45.8749 31.6644 46.6415 30.6169 45.1325 29.8032C44.6454 29.5473 42.0224 28.104 38.6571 26.2427L33.9918 30.9665L38.6571 35.6206V35.6207Z" fill="#FFD900"/>
<path d="M33.9919 30.9668L19.1372 45.9771C19.4859 46.0234 19.8795 45.9307 20.3436 45.6749C21.318 45.1402 31.6471 39.4847 38.6572 35.6222L33.9919 30.9668Z" fill="#F43249"/>
<path d="M33.9919 30.9665L38.6572 26.266C38.6572 26.266 21.3885 16.8172 20.3436 16.2594C19.95 16.0257 19.5089 15.9562 19.1141 16.0257L33.9919 30.9665Z" fill="#00EE76"/>
<path d="M33.9919 30.9668L19.1141 16.0259C18.5103 16.1658 18 16.7007 18 17.7945V44.2084C18 45.2096 18.3948 45.9307 19.1372 46.0002L33.9919 30.9668Z" fill="#00D3FF"/>
</svg>
