<svg width="38" height="45" viewBox="0 0 38 45" fill="none" xmlns="http://www.w3.org/2000/svg">
<path d="M37.6201 22.9558V38.4484C37.6183 40.1855 36.9274 41.8509 35.6991 43.0792C34.4708 44.3075 32.8054 44.9984 31.0683 45.0002H6.55182C4.81473 44.9984 3.14931 44.3075 1.92101 43.0792C0.692702 41.8509 0.00183431 40.1855 0 38.4484L0 22.9558C0.000527928 21.9118 0.250264 20.8831 0.728444 19.955C1.20662 19.027 1.89943 18.2265 2.74927 17.6201L16.5805 7.76123V12.3312L4.9078 20.6466C4.54086 20.9094 4.24171 21.2557 4.03507 21.6569C3.82842 22.0581 3.72022 22.5028 3.71939 22.9541V38.4467C3.72031 39.1976 4.01902 39.9175 4.55 40.4485C5.08099 40.9795 5.80089 41.2782 6.55182 41.2791H31.0683C31.8191 41.2777 32.5387 40.9789 33.0696 40.448C33.6005 39.9171 33.8993 39.1974 33.9007 38.4467V22.9558C33.8996 22.5147 33.7957 22.0799 33.5973 21.686C33.3988 21.292 33.1112 20.9498 32.7573 20.6864L32.7123 20.6483L27.3991 16.8631L25.4208 15.4529V10.8864L27.3991 12.3L34.8691 17.6253L34.9176 17.6617C35.7527 18.2694 36.4327 19.0655 36.9023 19.9854C37.3718 20.9053 37.6178 21.923 37.6201 22.9558Z" fill="#011E38"/>
<path d="M27.3991 25.5871V4.41927L20.4696 0V4.41061L23.678 6.45827V9.64583L20.4696 7.39375V11.9655L23.678 14.2175V25.5957C22.1432 26.0436 20.8215 27.03 19.9555 28.3738C19.0895 29.7177 18.7372 31.3288 18.9634 32.9115C19.1896 34.4941 19.9791 35.9421 21.1869 36.9895C22.3947 38.037 23.9398 38.6136 25.5385 38.6136C27.1373 38.6136 28.6823 38.037 29.8901 36.9895C31.0979 35.9421 31.8874 34.4941 32.1136 32.9115C32.3398 31.3288 31.9876 29.7177 31.1215 28.3738C30.2555 27.03 28.9338 26.0436 27.3991 25.5957V25.5871ZM25.5385 34.8916C24.9602 34.8913 24.395 34.7195 23.9144 34.398C23.4337 34.0764 23.0592 33.6196 22.8381 33.0852C22.6171 32.5509 22.5594 31.963 22.6724 31.3958C22.7854 30.8287 23.0641 30.3078 23.4731 29.899C23.8821 29.4902 24.4032 29.2119 24.9704 29.0992C25.5376 28.9865 26.1255 29.0445 26.6597 29.2659C27.1939 29.4873 27.6505 29.8621 27.9718 30.3429C28.293 30.8238 28.4645 31.3891 28.4645 31.9674C28.4636 32.743 28.155 33.4865 27.6064 34.0347C27.0578 34.583 26.3141 34.8912 25.5385 34.8916Z" fill="#CFAA4A"/>
</svg>
