<svg width="134" height="38" viewBox="0 0 134 38" fill="none" xmlns="http://www.w3.org/2000/svg">
<path d="M50.008 8.988H51.73V12.894C51.226 13.2953 50.638 13.6033 49.966 13.818C49.294 14.0327 48.6033 14.14 47.894 14.14C46.8953 14.14 45.9947 13.9253 45.192 13.496C44.3893 13.0573 43.7593 12.4553 43.302 11.69C42.8447 10.9247 42.616 10.0613 42.616 9.1C42.616 8.13867 42.8447 7.27533 43.302 6.51C43.7593 5.74467 44.3893 5.14733 45.192 4.718C46.004 4.27933 46.914 4.06 47.922 4.06C48.7433 4.06 49.49 4.19533 50.162 4.466C50.834 4.73667 51.3987 5.13333 51.856 5.656L50.708 6.776C49.9613 6.02933 49.0607 5.656 48.006 5.656C47.3153 5.656 46.6993 5.80067 46.158 6.09C45.626 6.37933 45.206 6.78533 44.898 7.308C44.5993 7.83067 44.45 8.428 44.45 9.1C44.45 9.75333 44.5993 10.3413 44.898 10.864C45.206 11.3867 45.626 11.7973 46.158 12.096C46.6993 12.3947 47.3107 12.544 47.992 12.544C48.7573 12.544 49.4293 12.376 50.008 12.04V8.988ZM60.9905 10.304C60.9905 10.4253 60.9811 10.598 60.9625 10.822H55.0965C55.1991 11.3727 55.4651 11.8113 55.8945 12.138C56.3331 12.4553 56.8745 12.614 57.5185 12.614C58.3398 12.614 59.0165 12.3433 59.5485 11.802L60.4865 12.88C60.1505 13.2813 59.7258 13.5847 59.2125 13.79C58.6991 13.9953 58.1205 14.098 57.4765 14.098C56.6551 14.098 55.9318 13.9347 55.3065 13.608C54.6811 13.2813 54.1958 12.8287 53.8505 12.25C53.5145 11.662 53.3465 10.9993 53.3465 10.262C53.3465 9.534 53.5098 8.88067 53.8365 8.302C54.1725 7.714 54.6345 7.25667 55.2225 6.93C55.8105 6.60333 56.4731 6.44 57.2105 6.44C57.9385 6.44 58.5871 6.60333 59.1565 6.93C59.7351 7.24733 60.1831 7.7 60.5005 8.288C60.8271 8.86667 60.9905 9.53867 60.9905 10.304ZM57.2105 7.84C56.6505 7.84 56.1745 8.008 55.7825 8.344C55.3998 8.67067 55.1665 9.10933 55.0825 9.66H59.3245C59.2498 9.11867 59.0211 8.68 58.6385 8.344C58.2558 8.008 57.7798 7.84 57.2105 7.84ZM67.1654 13.594C66.9601 13.762 66.7081 13.888 66.4094 13.972C66.1201 14.056 65.8121 14.098 65.4854 14.098C64.6641 14.098 64.0294 13.8833 63.5814 13.454C63.1334 13.0247 62.9094 12.3993 62.9094 11.578V7.98H61.6774V6.58H62.9094V4.872H64.6594V6.58H66.6614V7.98H64.6594V11.536C64.6594 11.9 64.7481 12.18 64.9254 12.376C65.1028 12.5627 65.3594 12.656 65.6954 12.656C66.0874 12.656 66.4141 12.5533 66.6754 12.348L67.1654 13.594ZM72.4742 6.524H74.2242V14H72.4742V6.524ZM73.3562 5.292C73.0388 5.292 72.7728 5.194 72.5582 4.998C72.3435 4.79267 72.2362 4.54067 72.2362 4.242C72.2362 3.94333 72.3435 3.696 72.5582 3.5C72.7728 3.29467 73.0388 3.192 73.3562 3.192C73.6735 3.192 73.9395 3.29 74.1542 3.486C74.3688 3.67267 74.4762 3.91067 74.4762 4.2C74.4762 4.508 74.3688 4.76933 74.1542 4.984C73.9488 5.18933 73.6828 5.292 73.3562 5.292ZM81.015 13.594C80.8097 13.762 80.5577 13.888 80.259 13.972C79.9697 14.056 79.6617 14.098 79.335 14.098C78.5137 14.098 77.879 13.8833 77.431 13.454C76.983 13.0247 76.759 12.3993 76.759 11.578V7.98H75.527V6.58H76.759V4.872H78.509V6.58H80.511V7.98H78.509V11.536C78.509 11.9 78.5977 12.18 78.775 12.376C78.9524 12.5627 79.209 12.656 79.545 12.656C79.937 12.656 80.2637 12.5533 80.525 12.348L81.015 13.594ZM89.6838 14.098C88.9278 14.098 88.2464 13.9347 87.6398 13.608C87.0331 13.2813 86.5571 12.8287 86.2118 12.25C85.8758 11.662 85.7078 10.9993 85.7078 10.262C85.7078 9.52467 85.8758 8.86667 86.2118 8.288C86.5571 7.70933 87.0331 7.25667 87.6398 6.93C88.2464 6.60333 88.9278 6.44 89.6838 6.44C90.4491 6.44 91.1351 6.60333 91.7418 6.93C92.3484 7.25667 92.8198 7.70933 93.1558 8.288C93.5011 8.86667 93.6738 9.52467 93.6738 10.262C93.6738 10.9993 93.5011 11.662 93.1558 12.25C92.8198 12.8287 92.3484 13.2813 91.7418 13.608C91.1351 13.9347 90.4491 14.098 89.6838 14.098ZM89.6838 12.6C90.3278 12.6 90.8598 12.3853 91.2798 11.956C91.6998 11.5267 91.9098 10.962 91.9098 10.262C91.9098 9.562 91.6998 8.99733 91.2798 8.568C90.8598 8.13867 90.3278 7.924 89.6838 7.924C89.0398 7.924 88.5078 8.13867 88.0878 8.568C87.6771 8.99733 87.4718 9.562 87.4718 10.262C87.4718 10.962 87.6771 11.5267 88.0878 11.956C88.5078 12.3853 89.0398 12.6 89.6838 12.6ZM99.5892 6.44C100.532 6.44 101.288 6.71533 101.857 7.266C102.427 7.81667 102.711 8.63333 102.711 9.716V14H100.961V9.94C100.961 9.28667 100.807 8.79667 100.499 8.47C100.191 8.134 99.7526 7.966 99.1832 7.966C98.5392 7.966 98.0306 8.162 97.6572 8.554C97.2839 8.93667 97.0972 9.492 97.0972 10.22V14H95.3472V6.524H97.0132V7.49C97.3026 7.14467 97.6666 6.88333 98.1052 6.706C98.5439 6.52867 99.0386 6.44 99.5892 6.44Z" fill="#001D38"/>
<path d="M49.792 30.3H43.942L42.826 33H39.838L45.454 20.4H48.334L53.968 33H50.908L49.792 30.3ZM48.874 28.086L46.876 23.262L44.878 28.086H48.874ZM60.8013 23.172C61.7013 23.172 62.5173 23.382 63.2493 23.802C63.9933 24.21 64.5753 24.792 64.9953 25.548C65.4153 26.292 65.6253 27.162 65.6253 28.158C65.6253 29.154 65.4153 30.03 64.9953 30.786C64.5753 31.53 63.9933 32.112 63.2493 32.532C62.5173 32.94 61.7013 33.144 60.8013 33.144C59.5653 33.144 58.5933 32.754 57.8853 31.974V36.492H55.0773V23.316H57.7593V24.432C58.4553 23.592 59.4693 23.172 60.8013 23.172ZM60.3153 30.84C61.0353 30.84 61.6233 30.6 62.0793 30.12C62.5473 29.628 62.7812 28.974 62.7812 28.158C62.7812 27.342 62.5473 26.694 62.0793 26.214C61.6233 25.722 61.0353 25.476 60.3153 25.476C59.5953 25.476 59.0013 25.722 58.5332 26.214C58.0773 26.694 57.8493 27.342 57.8493 28.158C57.8493 28.974 58.0773 29.628 58.5332 30.12C59.0013 30.6 59.5953 30.84 60.3153 30.84ZM73.229 23.172C74.129 23.172 74.945 23.382 75.677 23.802C76.421 24.21 77.003 24.792 77.423 25.548C77.843 26.292 78.053 27.162 78.053 28.158C78.053 29.154 77.843 30.03 77.423 30.786C77.003 31.53 76.421 32.112 75.677 32.532C74.945 32.94 74.129 33.144 73.229 33.144C71.993 33.144 71.021 32.754 70.313 31.974V36.492H67.505V23.316H70.187V24.432C70.883 23.592 71.897 23.172 73.229 23.172ZM72.743 30.84C73.463 30.84 74.051 30.6 74.507 30.12C74.975 29.628 75.209 28.974 75.209 28.158C75.209 27.342 74.975 26.694 74.507 26.214C74.051 25.722 73.463 25.476 72.743 25.476C72.023 25.476 71.429 25.722 70.961 26.214C70.505 26.694 70.277 27.342 70.277 28.158C70.277 28.974 70.505 29.628 70.961 30.12C71.429 30.6 72.023 30.84 72.743 30.84ZM89.3684 33.216C88.3724 33.216 87.4064 33.084 86.4704 32.82C85.5464 32.544 84.8024 32.19 84.2384 31.758L85.2284 29.562C85.7684 29.958 86.4104 30.276 87.1544 30.516C87.8984 30.756 88.6424 30.876 89.3864 30.876C90.2144 30.876 90.8264 30.756 91.2224 30.516C91.6184 30.264 91.8164 29.934 91.8164 29.526C91.8164 29.226 91.6964 28.98 91.4564 28.788C91.2284 28.584 90.9284 28.422 90.5564 28.302C90.1964 28.182 89.7044 28.05 89.0804 27.906C88.1204 27.678 87.3344 27.45 86.7224 27.222C86.1104 26.994 85.5824 26.628 85.1384 26.124C84.7064 25.62 84.4904 24.948 84.4904 24.108C84.4904 23.376 84.6884 22.716 85.0844 22.128C85.4804 21.528 86.0744 21.054 86.8664 20.706C87.6704 20.358 88.6484 20.184 89.8004 20.184C90.6044 20.184 91.3904 20.28 92.1584 20.472C92.9264 20.664 93.5984 20.94 94.1744 21.3L93.2744 23.514C92.1104 22.854 90.9464 22.524 89.7824 22.524C88.9664 22.524 88.3604 22.656 87.9644 22.92C87.5804 23.184 87.3884 23.532 87.3884 23.964C87.3884 24.396 87.6104 24.72 88.0544 24.936C88.5104 25.14 89.2004 25.344 90.1244 25.548C91.0844 25.776 91.8704 26.004 92.4824 26.232C93.0944 26.46 93.6164 26.82 94.0484 27.312C94.4924 27.804 94.7144 28.47 94.7144 29.31C94.7144 30.03 94.5104 30.69 94.1024 31.29C93.7064 31.878 93.1064 32.346 92.3024 32.694C91.4984 33.042 90.5204 33.216 89.3684 33.216ZM102.755 32.532C102.479 32.736 102.137 32.892 101.729 33C101.333 33.096 100.913 33.144 100.469 33.144C99.3169 33.144 98.4229 32.85 97.7869 32.262C97.1629 31.674 96.8509 30.81 96.8509 29.67V25.692H95.3569V23.532H96.8509V21.174H99.6589V23.532H102.071V25.692H99.6589V29.634C99.6589 30.042 99.7609 30.36 99.9649 30.588C100.181 30.804 100.481 30.912 100.865 30.912C101.309 30.912 101.687 30.792 101.999 30.552L102.755 32.532ZM108.64 33.144C107.62 33.144 106.702 32.934 105.886 32.514C105.082 32.082 104.452 31.488 103.996 30.732C103.54 29.976 103.312 29.118 103.312 28.158C103.312 27.198 103.54 26.34 103.996 25.584C104.452 24.828 105.082 24.24 105.886 23.82C106.702 23.388 107.62 23.172 108.64 23.172C109.66 23.172 110.572 23.388 111.376 23.82C112.18 24.24 112.81 24.828 113.266 25.584C113.722 26.34 113.95 27.198 113.95 28.158C113.95 29.118 113.722 29.976 113.266 30.732C112.81 31.488 112.18 32.082 111.376 32.514C110.572 32.934 109.66 33.144 108.64 33.144ZM108.64 30.84C109.36 30.84 109.948 30.6 110.404 30.12C110.872 29.628 111.106 28.974 111.106 28.158C111.106 27.342 110.872 26.694 110.404 26.214C109.948 25.722 109.36 25.476 108.64 25.476C107.92 25.476 107.326 25.722 106.858 26.214C106.39 26.694 106.156 27.342 106.156 28.158C106.156 28.974 106.39 29.628 106.858 30.12C107.326 30.6 107.92 30.84 108.64 30.84ZM118.509 24.594C118.845 24.126 119.295 23.772 119.859 23.532C120.435 23.292 121.095 23.172 121.839 23.172V25.764C121.527 25.74 121.317 25.728 121.209 25.728C120.405 25.728 119.775 25.956 119.319 26.412C118.863 26.856 118.635 27.528 118.635 28.428V33H115.827V23.316H118.509V24.594ZM132.907 28.194C132.907 28.23 132.889 28.482 132.853 28.95H125.527C125.659 29.55 125.971 30.024 126.463 30.372C126.955 30.72 127.567 30.894 128.299 30.894C128.803 30.894 129.247 30.822 129.631 30.678C130.027 30.522 130.393 30.282 130.729 29.958L132.223 31.578C131.311 32.622 129.979 33.144 128.227 33.144C127.135 33.144 126.169 32.934 125.329 32.514C124.489 32.082 123.841 31.488 123.385 30.732C122.929 29.976 122.701 29.118 122.701 28.158C122.701 27.21 122.923 26.358 123.367 25.602C123.823 24.834 124.441 24.24 125.221 23.82C126.013 23.388 126.895 23.172 127.867 23.172C128.815 23.172 129.673 23.376 130.441 23.784C131.209 24.192 131.809 24.78 132.241 25.548C132.685 26.304 132.907 27.186 132.907 28.194ZM127.885 25.296C127.249 25.296 126.715 25.476 126.283 25.836C125.851 26.196 125.587 26.688 125.491 27.312H130.261C130.165 26.7 129.901 26.214 129.469 25.854C129.037 25.482 128.509 25.296 127.885 25.296Z" fill="#001D38"/>
<path fill-rule="evenodd" clip-rule="evenodd" d="M18.3752 6.26909C19.5359 4.87481 20.3152 2.93191 20.1024 1C18.4333 1.06738 16.4132 2.10689 15.218 3.50117C14.1444 4.73594 13.2048 6.71185 13.4591 8.60525C15.3189 8.74963 17.2201 7.66474 18.378 6.26909H18.3752ZM22.5508 18.5315C22.5978 23.5256 26.953 25.188 27 25.21C26.9655 25.3269 26.3064 27.5778 24.7063 29.903C23.3246 31.9133 21.8904 33.9167 19.6299 33.9579C17.4094 33.9978 16.6964 32.6475 14.1568 32.6475C11.62 32.6475 10.8269 33.9167 8.72387 33.9978C6.54351 34.0803 4.88267 31.8239 3.48712 29.8219C0.640762 25.7243 -1.53546 18.2442 1.38689 13.1951C2.83633 10.687 5.43121 9.09889 8.24718 9.05901C10.3889 9.01776 12.4103 10.4932 13.7188 10.4932C15.0287 10.4932 17.4854 8.71938 20.0679 8.97926C21.1498 9.02463 24.184 9.41377 26.1337 12.2532C25.9761 12.3494 22.5121 14.357 22.5494 18.5315" fill="#001D38"/>
</svg>
