<svg width="115" height="45" viewBox="0 0 115 45" fill="none" xmlns="http://www.w3.org/2000/svg">
<path d="M53.14 35.75L50.32 38.69V44H45.49V23H50.32V32.81L59.62 23H65.02L56.32 32.36L65.53 44H59.86L53.14 35.75ZM71.5441 29.99C72.1041 29.21 72.8541 28.62 73.7941 28.22C74.7541 27.82 75.8541 27.62 77.0941 27.62V31.94C76.5741 31.9 76.2241 31.88 76.0441 31.88C74.7041 31.88 73.6541 32.26 72.8941 33.02C72.1341 33.76 71.7541 34.88 71.7541 36.38V44H67.0741V27.86H71.5441V29.99ZM79.8768 27.86H84.5568V44H79.8768V27.86ZM82.2168 25.61C81.3568 25.61 80.6568 25.36 80.1168 24.86C79.5768 24.36 79.3068 23.74 79.3068 23C79.3068 22.26 79.5768 21.64 80.1168 21.14C80.6568 20.64 81.3568 20.39 82.2168 20.39C83.0768 20.39 83.7768 20.63 84.3168 21.11C84.8568 21.59 85.1268 22.19 85.1268 22.91C85.1268 23.69 84.8568 24.34 84.3168 24.86C83.7768 25.36 83.0768 25.61 82.2168 25.61ZM98.4402 27.62C99.9402 27.62 101.3 27.97 102.52 28.67C103.76 29.35 104.73 30.32 105.43 31.58C106.13 32.82 106.48 34.27 106.48 35.93C106.48 37.59 106.13 39.05 105.43 40.31C104.73 41.55 103.76 42.52 102.52 43.22C101.3 43.9 99.9402 44.24 98.4402 44.24C96.2202 44.24 94.5302 43.54 93.3702 42.14V44H88.9002V21.74H93.5802V29.57C94.7602 28.27 96.3802 27.62 98.4402 27.62ZM97.6302 40.4C98.8302 40.4 99.8102 40 100.57 39.2C101.35 38.38 101.74 37.29 101.74 35.93C101.74 34.57 101.35 33.49 100.57 32.69C99.8102 31.87 98.8302 31.46 97.6302 31.46C96.4302 31.46 95.4402 31.87 94.6602 32.69C93.9002 33.49 93.5202 34.57 93.5202 35.93C93.5202 37.29 93.9002 38.38 94.6602 39.2C95.4402 40 96.4302 40.4 97.6302 40.4Z" fill="#001D38"/>
<path d="M37.6201 22.9558V38.4484C37.6183 40.1855 36.9274 41.8509 35.6991 43.0792C34.4708 44.3075 32.8054 44.9984 31.0683 45.0002H6.55182C4.81473 44.9984 3.14931 44.3075 1.92101 43.0792C0.692702 41.8509 0.00183431 40.1855 0 38.4484L0 22.9558C0.000527928 21.9118 0.250264 20.8831 0.728444 19.955C1.20662 19.027 1.89943 18.2265 2.74927 17.6201L16.5805 7.76123V12.3312L4.9078 20.6466C4.54086 20.9094 4.24171 21.2557 4.03507 21.6569C3.82842 22.0581 3.72022 22.5028 3.71939 22.9541V38.4467C3.72031 39.1976 4.01902 39.9175 4.55 40.4485C5.08099 40.9795 5.80089 41.2782 6.55182 41.2791H31.0683C31.8191 41.2777 32.5387 40.9789 33.0696 40.448C33.6005 39.9171 33.8993 39.1974 33.9007 38.4467V22.9558C33.8996 22.5147 33.7957 22.0799 33.5973 21.686C33.3988 21.292 33.1112 20.9498 32.7573 20.6864L32.7123 20.6483L27.3991 16.8631L25.4208 15.4529V10.8864L27.3991 12.3L34.8691 17.6253L34.9176 17.6617C35.7527 18.2694 36.4327 19.0655 36.9023 19.9854C37.3718 20.9053 37.6178 21.923 37.6201 22.9558Z" fill="#011E38"/>
<path d="M27.3991 25.5871V4.41927L20.4696 0V4.41061L23.678 6.45827V9.64583L20.4696 7.39375V11.9655L23.678 14.2175V25.5957C22.1432 26.0436 20.8215 27.03 19.9555 28.3738C19.0895 29.7177 18.7372 31.3288 18.9634 32.9115C19.1896 34.4941 19.9791 35.9421 21.1869 36.9895C22.3947 38.037 23.9398 38.6136 25.5385 38.6136C27.1373 38.6136 28.6823 38.037 29.8901 36.9895C31.0979 35.9421 31.8874 34.4941 32.1136 32.9115C32.3398 31.3288 31.9876 29.7177 31.1215 28.3738C30.2555 27.03 28.9338 26.0436 27.3991 25.5957V25.5871ZM25.5385 34.8916C24.9602 34.8913 24.395 34.7195 23.9144 34.398C23.4337 34.0764 23.0592 33.6196 22.8381 33.0852C22.6171 32.5509 22.5594 31.963 22.6724 31.3958C22.7854 30.8287 23.0641 30.3078 23.4731 29.899C23.8821 29.4902 24.4032 29.2119 24.9704 29.0992C25.5376 28.9865 26.1255 29.0445 26.6597 29.2659C27.1939 29.4873 27.6505 29.8621 27.9718 30.3429C28.293 30.8238 28.4645 31.3891 28.4645 31.9674C28.4636 32.743 28.155 33.4865 27.6064 34.0347C27.0578 34.583 26.3141 34.8912 25.5385 34.8916Z" fill="#CFAA4A"/>
</svg>
