<svg width="412" height="401" viewBox="0 0 412 401" fill="none" xmlns="http://www.w3.org/2000/svg">
<g opacity="0.5">
<path d="M28.1517 188.394L254.291 58.6938L28.1517 188.394Z" fill="white"/>
<path d="M28.1517 188.394L254.291 58.6938" stroke="#E5E5E5" stroke-width="55.6302" stroke-linecap="round"/>
</g>
<g opacity="0.5">
<path d="M81.9427 273.461L308.082 143.761L81.9427 273.461Z" fill="white"/>
<path d="M81.9427 273.461L308.082 143.761" stroke="#E5E5E5" stroke-width="55.6302" stroke-linecap="round"/>
</g>
<g opacity="0.5">
<path d="M366.007 111.169L383.632 100.927L366.007 111.169Z" fill="white"/>
<path d="M366.007 111.169L383.632 100.927" stroke="#E5E5E5" stroke-width="55.6302" stroke-linecap="round"/>
</g>
<g opacity="0.5">
<path d="M161.723 343.446L333.467 243.31L161.723 343.446Z" fill="white"/>
<path d="M161.723 343.446L333.467 243.31" stroke="#E5E5E5" stroke-width="55.6302" stroke-linecap="round"/>
</g>
<path d="M375.488 253.058C378.238 253.346 380.237 255.809 379.949 258.555C379.66 261.3 377.193 263.296 374.443 263.008C371.692 262.72 369.693 260.257 369.982 257.511C370.27 254.766 372.738 252.77 375.488 253.058Z" stroke="#00C83C" stroke-width="2.58977"/>
<path d="M83.161 354.952C87.6839 355.425 90.9709 359.475 90.4965 363.99C90.0221 368.505 85.9647 371.786 81.4418 371.313C76.9189 370.839 73.6319 366.789 74.1062 362.274C74.5806 357.759 78.6381 354.478 83.161 354.952Z" stroke="#00C83C" stroke-width="4.2587"/>
<path d="M198.631 17.7794C203.154 18.253 206.441 22.3032 205.967 26.818C205.492 31.3329 201.435 34.6141 196.912 34.1405C192.389 33.667 189.102 29.6168 189.576 25.1019C190.051 20.5871 194.108 17.3059 198.631 17.7794Z" stroke="#00C83C" stroke-width="4.2587"/>
<path d="M7.76448 124.897C9.84209 124.897 11.529 126.581 11.529 128.655C11.529 130.729 9.84209 132.413 7.76448 132.413C5.68686 132.413 4 130.729 4 128.655C4 126.581 5.68686 124.897 7.76448 124.897Z" stroke="#00C83C" stroke-width="3.11294"/>
<path d="M300.148 369.949C302.225 369.949 303.912 371.633 303.912 373.707C303.912 375.781 302.225 377.465 300.148 377.465C298.07 377.465 296.383 375.781 296.383 373.707C296.383 371.633 298.07 369.949 300.148 369.949Z" stroke="#4D5762" stroke-width="3.11294"/>
<path d="M342.974 16.5752L347.519 2.19037" stroke="#4D5762" stroke-width="1.81376"/>
<path d="M338.279 7.22119L352.69 11.7584" stroke="#4D5762" stroke-width="1.81376"/>
<path d="M22.9009 262.806L26.933 248.27" stroke="#4D5762" stroke-width="1.81376"/>
<path d="M17.8773 253.624L32.4399 257.649" stroke="#4D5762" stroke-width="1.81376"/>
<path d="M336.971 328.062L340.219 313.332" stroke="#4D5762" stroke-width="1.81376"/>
<path d="M331.463 319.161L346.22 322.403" stroke="#4D5762" stroke-width="1.81376"/>
<path d="M201.414 81.0845C261.372 81.0845 310.054 129.679 310.054 189.531C310.054 249.383 261.372 297.978 201.414 297.978C141.456 297.978 92.7742 249.383 92.7742 189.531C92.7742 129.679 141.456 81.0845 201.414 81.0845Z" fill="#404040"/>
<path d="M201.347 91.3411C255.634 91.3411 299.712 135.34 299.712 189.531C299.712 243.722 255.634 287.721 201.347 287.721C147.059 287.721 102.982 243.722 102.982 189.531C102.982 135.34 147.059 91.3411 201.347 91.3411Z" fill="white"/>
<path d="M156.924 193.132L183.517 219.075L245.77 156.933" stroke="#00C83C" stroke-width="10.8825"/>
</svg>
